<?xml version="1.0" standalone="no"?>
<!DOCTYPE svg PUBLIC "-//W3C//DTD SVG 20010904//EN"
 "http://www.w3.org/TR/2001/REC-SVG-20010904/DTD/svg10.dtd">
<svg version="1.0" xmlns="http://www.w3.org/2000/svg"
 width="600.000000pt" height="600.000000pt" viewBox="0 0 600.000000 600.000000"
 preserveAspectRatio="xMidYMid meet">
<metadata>
Created by potrace 1.14, written by Peter Selinger 2001-2017
</metadata>
<g transform="translate(0.000000,600.000000) scale(0.100000,-0.100000)"
fill="#000000" stroke="none">
<path d="M1975 5879 c-27 -10 -58 -18 -67 -18 -10 -1 -18 -6 -18 -13 0 -6 -3
-8 -6 -5 -17 17 -164 -84 -240 -164 -73 -77 -161 -210 -162 -243 0 -5 -4 -12
-9 -15 -32 -21 -126 -329 -148 -481 -3 -19 -7 -48 -10 -65 -17 -115 -25 -239
-26 -407 l-1 -136 -36 -8 c-21 -4 -44 -8 -52 -9 -8 -2 -58 -15 -110 -29 -52
-15 -102 -28 -110 -31 -71 -19 -271 -94 -340 -127 -25 -12 -47 -22 -50 -23 -6
-1 -55 -27 -130 -68 -69 -38 -209 -130 -238 -157 -11 -11 -23 -20 -26 -20 -12
0 -169 -157 -182 -182 -33 -64 -12 -63 91 3 110 70 297 159 439 208 101 35
330 98 416 115 14 3 48 9 75 15 28 5 70 12 95 16 25 3 52 8 60 10 38 10 120
16 121 8 3 -56 8 -104 12 -133 3 -19 8 -56 12 -81 13 -101 31 -198 70 -384 43
-205 116 -460 198 -695 52 -148 151 -403 165 -425 4 -5 7 -12 7 -15 1 -7 52
-119 75 -163 11 -22 20 -43 20 -49 0 -5 9 -23 21 -39 11 -16 17 -29 14 -29 -3
0 2 -12 13 -28 11 -15 20 -31 20 -35 2 -26 220 -405 323 -559 51 -77 56 -89
41 -97 -25 -13 -171 -58 -212 -65 -19 -3 -53 -9 -75 -13 -53 -9 -180 -9 -230
0 -57 11 -135 49 -180 88 -31 28 -106 128 -111 149 0 3 -7 19 -14 35 -34 80
-49 179 -45 315 3 131 5 152 19 215 7 33 14 66 21 105 2 14 17 66 33 115 l29
90 -24 65 c-13 36 -28 74 -33 85 -12 24 -83 223 -113 315 -24 74 -24 75 -26
92 -1 13 -35 -33 -69 -93 -10 -19 -42 -75 -71 -126 -150 -265 -303 -636 -357
-863 -2 -8 -10 -42 -18 -75 -8 -33 -17 -76 -20 -95 -3 -19 -7 -44 -10 -55 -31
-153 -23 -463 15 -562 6 -16 10 -29 10 -31 -3 -7 15 -64 36 -111 45 -100 123
-201 207 -265 192 -146 453 -185 782 -116 85 17 276 75 329 99 11 5 54 24 95
42 93 41 245 120 329 170 34 22 67 39 71 39 4 0 66 -58 137 -128 129 -130 314
-292 332 -292 5 0 11 -4 13 -9 4 -10 166 -118 228 -152 25 -13 47 -27 48 -31
2 -5 8 -8 12 -8 5 0 46 -17 92 -38 46 -22 101 -45 123 -52 22 -7 45 -15 50
-19 6 -3 21 -7 34 -9 14 -2 32 -7 41 -12 30 -16 137 -23 145 -10 9 14 9 14
-120 85 -50 28 -105 60 -122 73 -17 12 -36 22 -42 22 -6 0 -11 3 -11 8 0 4
-17 18 -38 32 -149 98 -420 362 -602 588 -19 24 -45 56 -57 70 -29 34 -29 48
0 63 12 7 47 32 77 55 30 24 66 53 80 63 51 40 145 116 160 131 9 8 47 42 85
75 124 107 420 408 542 551 10 12 38 46 63 75 40 46 177 222 273 349 62 82
187 268 187 278 0 6 4 12 9 14 15 5 188 301 273 466 45 86 82 158 84 160 5 7
51 -35 144 -129 97 -99 165 -198 195 -285 24 -69 27 -170 7 -235 -18 -59 -82
-164 -134 -220 -74 -79 -255 -187 -393 -234 -67 -23 -214 -65 -245 -70 -76
-13 -73 -11 -130 -85 -40 -52 -131 -161 -171 -205 -15 -16 -48 -55 -75 -85
-26 -30 -50 -57 -53 -60 -3 -3 -12 -13 -20 -23 -14 -18 -5 -18 250 -12 258 5
286 7 399 21 30 3 70 8 89 10 45 4 111 16 207 35 28 5 64 12 80 15 16 3 63 14
104 25 41 11 80 22 85 23 84 22 225 75 324 123 211 103 358 224 457 374 27 41
50 79 52 84 1 6 14 44 29 85 33 95 40 242 17 340 -9 36 -17 72 -19 81 -6 30
-49 123 -84 184 -117 203 -326 413 -585 588 -99 67 -244 155 -289 175 -22 10
-27 17 -22 33 4 12 8 27 9 33 2 6 12 43 24 81 25 83 68 265 78 330 2 11 6 36
9 55 28 166 38 421 22 585 -6 59 -26 168 -42 225 -3 8 -8 31 -13 51 -12 47
-40 89 -56 83 -10 -4 -13 -44 -13 -162 1 -173 -6 -264 -28 -382 -3 -14 -7 -41
-10 -60 -28 -171 -209 -730 -238 -730 -4 0 -24 8 -45 19 -20 10 -68 31 -107
46 -38 15 -83 33 -100 40 -16 8 -59 23 -95 35 -36 12 -74 26 -85 31 -35 15
-244 81 -300 94 -5 1 -17 5 -25 8 -13 4 -40 12 -85 23 -5 1 -48 12 -95 24 -89
23 -102 26 -160 35 -19 3 -42 8 -50 11 -8 4 -26 8 -40 10 -14 2 -32 6 -40 7
-8 2 -33 7 -55 11 -22 4 -60 11 -85 16 -47 10 -98 18 -165 25 -22 3 -51 7 -65
10 -48 9 -174 23 -375 41 -250 21 -852 19 -889 -3 -23 -15 33 218 78 327 94
222 232 321 438 314 93 -3 197 -33 296 -85 133 -70 230 -146 383 -303 63 -65
95 -90 116 -92 62 -7 282 -44 343 -58 14 -4 41 -8 60 -11 19 -3 50 -9 68 -14
17 -5 32 -8 32 -5 0 3 8 0 19 -5 31 -17 31 -1 0 49 -16 26 -29 52 -29 59 0 6
-4 11 -10 11 -5 0 -10 5 -10 11 0 25 -221 366 -317 489 -127 164 -330 380
-443 470 -30 25 -57 47 -60 50 -6 8 -159 111 -186 126 -93 52 -117 64 -129 64
-7 0 -15 3 -17 8 -3 7 -139 54 -198 68 -14 4 -81 7 -150 8 -97 2 -136 -2 -175
-15z m420 -1784 c28 -3 77 -7 110 -10 33 -3 74 -7 90 -9 100 -13 133 -17 160
-21 17 -3 44 -7 60 -10 17 -2 41 -7 55 -9 14 -3 42 -8 63 -11 21 -3 79 -14
130 -26 51 -11 103 -22 117 -25 14 -3 43 -10 65 -16 22 -5 47 -12 55 -14 128
-30 474 -143 565 -183 11 -5 61 -26 110 -46 98 -41 374 -174 470 -227 33 -18
61 -34 63 -35 4 -1 2 -5 -89 -163 -62 -107 -219 -353 -255 -400 -7 -8 -56 -73
-110 -145 -53 -71 -100 -132 -103 -135 -3 -3 -28 -32 -56 -65 -157 -191 -510
-536 -663 -650 -8 -5 -24 -19 -36 -30 -12 -11 -60 -48 -106 -82 -47 -34 -90
-66 -95 -70 -46 -36 -85 -63 -90 -63 -4 0 -24 -13 -44 -28 -20 -16 -43 -32
-51 -36 -21 -10 -50 -28 -85 -52 -17 -11 -51 -33 -78 -48 -44 -25 -48 -26 -54
-9 -4 10 -10 20 -13 23 -24 17 -207 364 -313 590 -107 230 -278 742 -313 940
-3 14 -7 33 -10 42 -3 10 -7 30 -10 45 -2 16 -9 48 -14 73 -10 48 -25 138 -35
205 -3 23 -7 51 -10 64 -2 12 -7 50 -10 84 -4 34 -9 80 -11 102 -8 59 -15 193
-19 338 l-4 128 257 -5 c141 -3 280 -8 307 -11z"/>
</g>
</svg>
